<svg xmlns="http://www.w3.org/2000/svg" width="1166.175" height="757.357" viewBox="0 0 1166.175 757.357"><path d="M676.53,157.07c-74.75.1-146.7-21.09-215.52-44.63S323.9,62.54,250.54,51.37c-47.18-7.18-100.83-6.52-137.71,19.55C77.33,96,67.05,137.51,62.09,175.86c-3.73,28.85-5.45,59.13,8.52,85.52,9.7,18.32,26.3,33.42,38,50.88C149.45,373,124.89,450.59,85.2,512.74c-18.61,29.16-40.41,57.11-54.48,87.94s-19.84,65.79-5.49,96.22c14.22,30.16,46.34,52.05,80.81,67,70,30.42,151.5,36.94,230.81,39.45,175.56,5.57,351.46-5.79,526.89-17.15,64.92-4.2,130.13-8.43,193.71-20.6,35.3-6.75,71.65-16.77,96.68-38.73,31.77-27.88,38.27-73.4,15.15-106.12-38.77-54.88-141-65.23-168.8-124.61-15.33-32.69-2.11-70.18,17.36-101.69,41.76-67.61,113.64-128.17,114.85-203.79.83-51.93-36.55-102.59-92.38-125.16C981.79,41.86,902,47.94,861,92,818.84,137.39,742.53,157,676.53,157.07Z" transform="translate(-16.91 -47.454)" fill="#6c63ff" opacity="0.1"/></svg>