<svg xmlns="http://www.w3.org/2000/svg" width="206.92" height="430.09" viewBox="0 0 206.92 430.09"><g transform="translate(-959.15 -239.63)"><path d="M1009.44,692.82s-12.29-8.11-24.47-2.34c0,0,3.75,7.22,19.17,6.54Z" transform="translate(-16.91 -47.46)" fill="#f9f9f9"/><path d="M1011,693.25s3.74,14.24-5.64,23.93c0,0-5.64-5.87,0-20.25Z" transform="translate(-16.91 -47.46)" fill="#f9f9f9"/><path d="M1026.28,679.58s-.91-12.11-28.26-8.09c0,0-.13,7.81,9.47,11.51S1021.49,683.58,1026.28,679.58Z" transform="translate(-16.91 -47.46)" fill="#f9f9f9"/><path d="M1028,679.5s11.56,3.71,1.25,29.36c0,0-7.63-1.7-9-11.91S1022.94,683.22,1028,679.5Z" transform="translate(-16.91 -47.46)" fill="#f9f9f9"/><path d="M1043.44,662.32s1.57-19.93-26.38-17.89c0,0-2,18,21.45,22.68Z" transform="translate(-16.91 -47.46)" fill="#f9f9f9"/><path d="M1061.91,639.82s-3.83-22.59-31.77-15.86c0,0-.1,19.53,27.21,21.24Z" transform="translate(-16.91 -47.46)" fill="#f9f9f9"/><path d="M1096.49,572.26s-4.82-27.92-29.74-21.74c0,0,7.24,25.4,27.91,25.81Z" transform="translate(-16.91 -47.46)" fill="#f9f9f9"/><path d="M1104.24,546.19s-5.79-28.14-31-20c0,0,9.88,26.6,29.21,23.85Z" transform="translate(-16.91 -47.46)" fill="#f9f9f9"/><path d="M1109,521.93s-9.19-28.15-28.68-27.39c0,0,9.39,29.73,27.05,33Z" transform="translate(-16.91 -47.46)" fill="#f9f9f9"/><path d="M1112.08,498.25s-10-33.88-25.86-31.27c0,0,6.92,25.9,25.3,36.55Z" transform="translate(-16.91 -47.46)" fill="#f9f9f9"/><path d="M1113.82,470s-9.38-28.23-25-29.36c0,0,6.38,27.78,24.69,36.7Z" transform="translate(-16.91 -47.46)" fill="#f9f9f9"/><path d="M1115.71,443.64s-11.69-28.26-22-28.9c0,0,5.08,27.83,21,33.54Z" transform="translate(-16.91 -47.46)" fill="#f9f9f9"/><path d="M1117,419.12s-7.19-30.69-17.52-33.24c0,0,1.41,25.11,16.48,35.54Z" transform="translate(-16.91 -47.46)" fill="#f9f9f9"/><path d="M1120.9,387s-7.56-24.47-15.93-28.2c0,0,1.65,28.85,14,34.18Z" transform="translate(-16.91 -47.46)" fill="#f9f9f9"/><path d="M1124.13,366l1.52-43.14S1110,355.38,1123,373.57Z" transform="translate(-16.91 -47.46)" fill="#f9f9f9"/><path d="M1136.21,323.09s11.27-31.5,14-33.26c0,0-22.1,20.44-19.94,46.73Z" transform="translate(-16.91 -47.46)" fill="#f9f9f9"/><path d="M1044.2,662.17s19.82-2.59,19.23,25.42c0,0-17.91,2.92-23.76-20.25Z" transform="translate(-16.91 -47.46)" fill="#f9f9f9"/><path d="M1062.85,639.06s22.9-.07,21,28.6c0,0-19.23,3.44-25.57-23.18Z" transform="translate(-16.91 -47.46)" fill="#f9f9f9"/><path d="M1088.69,594.05s21.29-10.37,33.79,14.21c0,0-22.18,7.64-35.55-10.32Z" transform="translate(-16.91 -47.46)" fill="#f9f9f9"/><path d="M1096.22,572.87s20.49-19.57,36.84.22c0,0-20.93,16.11-37.78,4.14Z" transform="translate(-16.91 -47.46)" fill="#f9f9f9"/><path d="M1103.08,545.52s20.61-20,36.83.92c0,0-23.13,16.43-37.57,3.28Z" transform="translate(-16.91 -47.46)" fill="#f9f9f9"/><path d="M1106.93,521.13s15.88-25,34.58-19.42c0,0-16.48,26.47-34.4,25.29Z" transform="translate(-16.91 -47.46)" fill="#f9f9f9"/><path d="M1111.61,498.09s16-31.48,31.14-26c0,0-11.54,24.2-31.55,31.31Z" transform="translate(-16.91 -47.46)" fill="#f9f9f9"/><path d="M1112.72,468.36s16.45-24.78,31.86-21.75c0,0-13.45,25.13-33.46,28.92Z" transform="translate(-16.91 -47.46)" fill="#f9f9f9"/><path d="M1114,443.09s12.75-27.81,23.11-28c0,0-6.12,27.61-22.25,32.72Z" transform="translate(-16.91 -47.46)" fill="#f9f9f9"/><path d="M1116.5,418.52s14.17-28.16,24.82-28.22c0,0-7.25,24.08-24.35,30.69Z" transform="translate(-16.91 -47.46)" fill="#f9f9f9"/><path d="M1118.63,388.76s10.6-23.3,19.38-25.94c0,0-5.3,28.4-18.21,32.12Z" transform="translate(-16.91 -47.46)" fill="#f9f9f9"/><path d="M1125.39,365.15l23.69-36.09s-6.07,35.6-27.15,43Z" transform="translate(-16.91 -47.46)" fill="#f9f9f9"/><path d="M1141.65,326s27.53-19,28.53-22.07c0,0-14,26.61-40,31.31Z" transform="translate(-16.91 -47.46)" fill="#f9f9f9"/><path d="M1143.3,317.45s31.61-30.39,39.68-30.36c0,0-26.07,1.19-40.44,28.74Z" transform="translate(-16.91 -47.46)" fill="#f9f9f9"/><path d="M1118.94,393.27l1.15.15c5.94-46.49,14.6-74,24.38-77.37l-.38-1.1C1133.72,318.55,1125,345.64,1118.94,393.27Z" transform="translate(-16.91 -47.46)" fill="#444053"/><path d="M1110.2,504.45l1.74.14c.37-4.34.65-8.78.84-13.21,1.66-38.48,4.23-73.82,7.61-100.31l-1-1.25c-3.39,26.55-6.69,62.95-8.35,101.49C1110.85,495.71,1110.57,500.13,1110.2,504.45Z" transform="translate(-16.91 -47.46)" fill="#444053"/><path d="M977,715c.3-.13,30.93-13.81,62.72-46.43a252.221,252.221,0,0,0,45.85-65c14.7-29.93,23.66-66.71,26.66-102.44l-1.81.85c-6.75,80.2-43.26,135-72.29,164.85-31.48,32.33-61.77,45.87-62.07,46Z" transform="translate(-16.91 -47.46)" fill="#444053"/></g></svg>